<svg width="842" height="657" viewBox="0 0 842 657" fill="none" xmlns="http://www.w3.org/2000/svg">
<g clip-path="url(#clip0)">
<rect opacity="0.4" y="155" width="1376.03" height="767.907" rx="99" transform="rotate(-45 0 155)" fill="#FFEAA7"/>
<g clip-path="url(#clip1)">
<path d="M795.704 53.6611C799.397 53.6611 802.391 50.6675 802.391 46.9747C802.391 43.2818 799.397 40.2882 795.704 40.2882C792.011 40.2882 789.018 43.2818 789.018 46.9747C789.018 50.6675 792.011 53.6611 795.704 53.6611Z" fill="#FDCB6E"/>
<path d="M817.992 31.3729C821.685 31.3729 824.679 28.3793 824.679 24.6865C824.679 20.9936 821.685 18 817.992 18C814.299 18 811.306 20.9936 811.306 24.6865C811.306 28.3793 814.299 31.3729 817.992 31.3729Z" fill="#FDCB6E"/>
<path d="M840.281 53.6611C843.973 53.6611 846.967 50.6675 846.967 46.9747C846.967 43.2818 843.973 40.2882 840.281 40.2882C836.588 40.2882 833.594 43.2818 833.594 46.9747C833.594 50.6675 836.588 53.6611 840.281 53.6611Z" fill="#FDCB6E"/>
<path d="M751.128 98.2377C754.82 98.2377 757.814 95.2441 757.814 91.5512C757.814 87.8584 754.82 84.8647 751.128 84.8647C747.435 84.8647 744.441 87.8584 744.441 91.5512C744.441 95.2441 747.435 98.2377 751.128 98.2377Z" fill="#FDCB6E"/>
<path d="M773.416 75.9494C777.109 75.9494 780.102 72.9557 780.102 69.2629C780.102 65.5701 777.109 62.5764 773.416 62.5764C769.723 62.5764 766.729 65.5701 766.729 69.2629C766.729 72.9557 769.723 75.9494 773.416 75.9494Z" fill="#FDCB6E"/>
<path d="M795.704 98.2377C799.397 98.2377 802.391 95.2441 802.391 91.5512C802.391 87.8584 799.397 84.8647 795.704 84.8647C792.011 84.8647 789.018 87.8584 789.018 91.5512C789.018 95.2441 792.011 98.2377 795.704 98.2377Z" fill="#FDCB6E"/>
<path d="M817.992 75.9494C821.685 75.9494 824.679 72.9557 824.679 69.2629C824.679 65.5701 821.685 62.5764 817.992 62.5764C814.299 62.5764 811.306 65.5701 811.306 69.2629C811.306 72.9557 814.299 75.9494 817.992 75.9494Z" fill="#FDCB6E"/>
<path d="M840.281 98.2377C843.973 98.2377 846.967 95.2441 846.967 91.5512C846.967 87.8584 843.973 84.8647 840.281 84.8647C836.588 84.8647 833.594 87.8584 833.594 91.5512C833.594 95.2441 836.588 98.2377 840.281 98.2377Z" fill="#FDCB6E"/>
<path d="M706.551 142.814C710.244 142.814 713.238 139.82 713.238 136.128C713.238 132.435 710.244 129.441 706.551 129.441C702.858 129.441 699.865 132.435 699.865 136.128C699.865 139.82 702.858 142.814 706.551 142.814Z" fill="#FDCB6E"/>
<path d="M728.839 120.526C732.532 120.526 735.526 117.532 735.526 113.839C735.526 110.147 732.532 107.153 728.839 107.153C725.147 107.153 722.153 110.147 722.153 113.839C722.153 117.532 725.147 120.526 728.839 120.526Z" fill="#FDCB6E"/>
<path d="M751.128 142.814C754.82 142.814 757.814 139.82 757.814 136.128C757.814 132.435 754.82 129.441 751.128 129.441C747.435 129.441 744.441 132.435 744.441 136.128C744.441 139.82 747.435 142.814 751.128 142.814Z" fill="#FDCB6E"/>
<path d="M773.416 120.526C777.109 120.526 780.102 117.532 780.102 113.839C780.102 110.147 777.109 107.153 773.416 107.153C769.723 107.153 766.729 110.147 766.729 113.839C766.729 117.532 769.723 120.526 773.416 120.526Z" fill="#FDCB6E"/>
<path d="M795.704 142.814C799.397 142.814 802.391 139.82 802.391 136.128C802.391 132.435 799.397 129.441 795.704 129.441C792.011 129.441 789.018 132.435 789.018 136.128C789.018 139.82 792.011 142.814 795.704 142.814Z" fill="#FDCB6E"/>
<path d="M817.992 120.526C821.685 120.526 824.679 117.532 824.679 113.839C824.679 110.147 821.685 107.153 817.992 107.153C814.299 107.153 811.306 110.147 811.306 113.839C811.306 117.532 814.299 120.526 817.992 120.526Z" fill="#FDCB6E"/>
<path d="M840.281 142.814C843.973 142.814 846.967 139.82 846.967 136.128C846.967 132.435 843.973 129.441 840.281 129.441C836.588 129.441 833.594 132.435 833.594 136.128C833.594 139.82 836.588 142.814 840.281 142.814Z" fill="#FDCB6E"/>
<path d="M728.839 165.102C732.532 165.102 735.526 162.109 735.526 158.416C735.526 154.723 732.532 151.729 728.839 151.729C725.147 151.729 722.153 154.723 722.153 158.416C722.153 162.109 725.147 165.102 728.839 165.102Z" fill="#FDCB6E"/>
<path d="M751.128 187.391C754.82 187.391 757.814 184.397 757.814 180.704C757.814 177.011 754.82 174.018 751.128 174.018C747.435 174.018 744.441 177.011 744.441 180.704C744.441 184.397 747.435 187.391 751.128 187.391Z" fill="#FDCB6E"/>
<path d="M773.416 165.102C777.109 165.102 780.102 162.109 780.102 158.416C780.102 154.723 777.109 151.729 773.416 151.729C769.723 151.729 766.729 154.723 766.729 158.416C766.729 162.109 769.723 165.102 773.416 165.102Z" fill="#FDCB6E"/>
<path d="M795.704 187.391C799.397 187.391 802.391 184.397 802.391 180.704C802.391 177.011 799.397 174.018 795.704 174.018C792.011 174.018 789.018 177.011 789.018 180.704C789.018 184.397 792.011 187.391 795.704 187.391Z" fill="#FDCB6E"/>
<path d="M817.992 165.102C821.685 165.102 824.679 162.109 824.679 158.416C824.679 154.723 821.685 151.729 817.992 151.729C814.299 151.729 811.306 154.723 811.306 158.416C811.306 162.109 814.299 165.102 817.992 165.102Z" fill="#FDCB6E"/>
<path d="M840.281 187.391C843.973 187.391 846.967 184.397 846.967 180.704C846.967 177.011 843.973 174.018 840.281 174.018C836.588 174.018 833.594 177.011 833.594 180.704C833.594 184.397 836.588 187.391 840.281 187.391Z" fill="#FDCB6E"/>
<path d="M773.416 209.679C777.109 209.679 780.102 206.685 780.102 202.992C780.102 199.3 777.109 196.306 773.416 196.306C769.723 196.306 766.729 199.3 766.729 202.992C766.729 206.685 769.723 209.679 773.416 209.679Z" fill="#FDCB6E"/>
<path d="M795.704 231.967C799.397 231.967 802.391 228.973 802.391 225.281C802.391 221.588 799.397 218.594 795.704 218.594C792.011 218.594 789.018 221.588 789.018 225.281C789.018 228.973 792.011 231.967 795.704 231.967Z" fill="#FDCB6E"/>
<path d="M817.992 209.679C821.685 209.679 824.679 206.685 824.679 202.992C824.679 199.3 821.685 196.306 817.992 196.306C814.299 196.306 811.306 199.3 811.306 202.992C811.306 206.685 814.299 209.679 817.992 209.679Z" fill="#FDCB6E"/>
<path d="M840.281 231.967C843.973 231.967 846.967 228.973 846.967 225.281C846.967 221.588 843.973 218.594 840.281 218.594C836.588 218.594 833.594 221.588 833.594 225.281C833.594 228.973 836.588 231.967 840.281 231.967Z" fill="#FDCB6E"/>
<path d="M817.992 254.255C821.685 254.255 824.679 251.262 824.679 247.569C824.679 243.876 821.685 240.882 817.992 240.882C814.299 240.882 811.306 243.876 811.306 247.569C811.306 251.262 814.299 254.255 817.992 254.255Z" fill="#FDCB6E"/>
<path d="M840.281 276.543C843.973 276.543 846.967 273.55 846.967 269.857C846.967 266.164 843.973 263.171 840.281 263.171C836.588 263.171 833.594 266.164 833.594 269.857C833.594 273.55 836.588 276.543 840.281 276.543Z" fill="#FDCB6E"/>
</g>
</g>
<defs>
<clipPath id="clip0">
<rect width="842" height="657" fill="white"/>
</clipPath>
<clipPath id="clip1">
<rect width="209" height="285" fill="white" transform="translate(633 18)"/>
</clipPath>
</defs>
</svg>
