<svg width="36" height="22" viewBox="0 0 36 22" fill="none" xmlns="http://www.w3.org/2000/svg">
<path fill-rule="evenodd" clip-rule="evenodd" d="M6.99975 6.9918C6.99975 5.44661 5.7468 4.19508 4.19985 4.19508C1.88013 4.19508 0 2.31708 0 0H1.39995C1.39995 1.54519 2.65291 2.79672 4.19985 2.79672C6.51957 2.79672 8.3997 4.67472 8.3997 6.9918C8.3997 8.53699 9.65266 9.78852 11.1996 9.78852C13.5193 9.78852 15.3995 11.6665 15.3995 13.9836C15.3995 15.5288 16.6524 16.7803 18.1994 16.7803V18.1787C15.8796 18.1787 13.9995 16.3007 13.9995 13.9836C13.9995 12.4384 12.7465 11.1869 11.1996 11.1869C8.87989 11.1869 6.99975 9.30888 6.99975 6.9918ZM24.8239 5.6284L30.7639 11.5616L29.7741 12.5503L23.8342 6.61704L24.8239 5.6284V5.6284Z" fill="#6C5CE7"/>
</svg>
